<svg width="60" height="60" viewBox="0 0 60 60" fill="none" xmlns="http://www.w3.org/2000/svg">
<rect width="60" height="60" rx="8" fill="#F0F0F0"/>
<path d="M38.5068 35.25C37.9278 38.3763 35.3708 41.3772 34.1647 42.4868C34.1647 43.1623 34.3094 44.7158 34.8884 45.5263C47.8989 49.4501 51.5937 54.4329 51.9673 57.1078C52.0126 57.4324 52.0091 59.7494 51.9673 60H8.0897C8.05677 59.8024 8.06992 57.5537 8.08972 57.3093C8.30199 54.6896 11.8462 49.5509 25.191 45.5263C25.7699 44.7158 25.9147 43.1623 25.9147 42.4868C24.7085 41.3772 22.1515 38.3763 21.5726 35.25C19.4015 34.3816 19.2568 30.4737 20.4147 29.0263C20.4147 25.1184 19.5462 16.2895 29.2436 16H30.8357C40.5331 16.2895 39.6647 25.1184 39.6647 29.0263C40.8226 30.4737 40.6778 34.3816 38.5068 35.25Z" fill="#C1C1C1"/>
</svg>
