<?xml version="1.0" standalone="no"?>
<!DOCTYPE svg PUBLIC "-//W3C//DTD SVG 20010904//EN"
 "http://www.w3.org/TR/2001/REC-SVG-20010904/DTD/svg10.dtd">
<svg version="1.0" xmlns="http://www.w3.org/2000/svg"
 width="1424.000000pt" height="1424.000000pt" viewBox="0 0 1424.000000 1424.000000"
 preserveAspectRatio="xMidYMid meet">
<metadata>
Created by potrace 1.11, written by Peter Selinger 2001-2013
</metadata>
<g transform="translate(0.000000,1424.000000) scale(0.100000,-0.100000)"
fill="#000000" stroke="none">
<path d="M0 7115 l0 -4665 3344 0 3344 0 0 560 1 560 -2785 0 -2784 0 -1 53
c-1 28 -1 55 0 59 1 7 1 82 1 123 -1 11 -1 43 0 70 0 28 -1 87 -3 133 -1 45 0
82 3 82 6 0 3 126 -4 152 -2 10 -1 18 2 18 4 0 6 28 5 62 -4 84 -4 200 -1 326
2 56 -1 102 -5 102 -5 0 -6 4 -3 8 6 11 8 74 4 195 -2 53 -1 97 2 97 6 0 3
126 -4 153 -2 9 -1 17 2 17 4 0 6 28 5 62 -4 84 -4 200 -1 326 2 56 -1 102 -5
102 -5 0 -6 4 -3 8 6 11 8 74 4 195 -2 53 -1 97 2 97 6 0 3 126 -4 153 -2 9
-1 17 2 17 4 0 6 28 5 62 -2 35 -3 99 -3 143 0 44 0 127 -1 185 0 58 1 119 1
135 1 17 2 37 1 45 0 8 0 58 0 110 1 52 0 102 0 110 0 8 -1 31 0 50 0 19 0 42
0 50 0 8 0 58 0 110 1 52 0 102 0 110 0 8 -1 31 0 50 0 19 0 42 0 50 0 8 0 58
0 110 1 52 0 104 -1 115 -1 11 -1 27 -1 35 1 58 0 127 -2 198 -1 45 0 82 3 82
6 0 3 126 -4 153 -2 9 -1 17 2 17 4 0 6 28 5 62 -4 84 -4 200 -1 326 2 56 -1
102 -5 102 -5 0 -6 4 -3 8 6 11 8 74 4 195 -2 53 -1 97 2 97 6 0 3 126 -4 153
-2 9 -1 17 2 17 4 0 6 28 5 62 -4 84 -4 200 -1 326 2 56 -1 102 -5 102 -5 0
-6 4 -3 8 6 11 8 74 4 195 -2 53 -1 97 2 97 6 0 3 126 -4 153 -2 9 -1 17 2 17
4 0 6 28 5 62 -2 35 -3 101 -3 148 0 47 0 128 -1 180 0 52 0 102 0 110 2 45
-1 125 -5 132 -3 4 998 8 2224 8 l2230 0 0 -2031 0 -2031 -22 25 c-11 13 -34
42 -51 62 -37 47 -87 106 -100 121 -5 6 -21 26 -35 44 -14 18 -30 38 -35 44
-10 10 -76 93 -100 124 -5 7 -17 21 -26 30 -8 9 -44 53 -79 97 -35 44 -71 87
-79 96 -25 25 -51 59 -51 64 0 5 -20 30 -60 74 -14 15 -32 36 -40 47 -37 47
-95 119 -100 124 -3 3 -21 25 -41 50 -20 25 -46 56 -58 70 -11 14 -24 30 -28
35 -41 52 -143 177 -167 205 -17 20 -42 51 -56 70 -14 18 -42 52 -62 74 -21
23 -38 44 -38 48 0 4 -8 14 -17 24 -10 9 -38 42 -63 73 -25 31 -51 63 -57 71
-7 8 -51 62 -99 120 -47 58 -93 114 -102 125 -10 11 -31 38 -47 60 -17 22 -34
45 -40 51 -5 6 -28 32 -50 59 -22 27 -52 63 -67 81 -16 17 -28 37 -28 43 0 7
-4 9 -10 6 -5 -3 -10 0 -10 7 0 8 -9 20 -20 28 -11 8 -20 18 -20 22 0 9 -16
28 -77 96 -24 26 -43 50 -43 54 0 4 -8 15 -18 25 -15 15 -62 72 -122 146 -8
11 -21 25 -27 32 -7 8 -13 16 -13 19 0 3 -12 18 -27 34 -16 16 -39 44 -53 62
-23 30 -71 89 -95 116 -5 7 -23 28 -39 48 l-29 36 -463 0 -463 0 0 -27 c-1
-16 -2 -41 -4 -58 -1 -16 1 -42 5 -57 3 -15 3 -30 -2 -33 -4 -3 -4 -21 0 -40
4 -19 4 -37 0 -40 -4 -2 -4 -23 0 -45 4 -22 4 -43 0 -45 -4 -3 -4 -21 0 -40 4
-19 4 -35 0 -35 -4 0 -4 -16 0 -35 4 -19 4 -37 0 -40 -4 -2 -4 -23 0 -45 4
-22 4 -43 0 -45 -4 -3 -4 -21 0 -40 4 -19 4 -37 0 -40 -5 -3 -5 -18 -1 -33 4
-15 6 -36 5 -47 -1 -11 -3 -32 -3 -47 -1 -16 -1 -40 -2 -55 0 -16 0 -35 0 -43
1 -8 1 -26 0 -40 0 -14 0 -32 0 -40 2 -26 1 -54 -3 -75 -1 -11 0 -34 4 -51 4
-18 4 -38 0 -44 -4 -7 -4 -26 0 -41 5 -16 5 -31 1 -34 -5 -2 -5 -23 -1 -45 4
-22 4 -40 0 -40 -4 0 -4 -18 0 -40 4 -22 4 -40 0 -40 -4 0 -4 -15 0 -34 4 -19
4 -39 0 -46 -4 -7 -4 -27 0 -46 4 -19 4 -36 0 -39 -4 -3 -4 -21 0 -40 4 -19 4
-37 0 -40 -5 -3 -5 -18 -1 -33 4 -15 6 -36 5 -47 -1 -11 -3 -32 -3 -47 -1 -16
-1 -40 -2 -55 0 -16 0 -35 0 -43 1 -8 1 -26 0 -40 0 -14 0 -32 0 -40 2 -19 0
-59 -3 -85 -1 -11 1 -32 5 -47 4 -15 4 -30 -1 -33 -4 -3 -4 -21 0 -40 4 -19 4
-37 0 -40 -4 -2 -4 -23 0 -45 4 -22 4 -43 0 -45 -4 -3 -4 -21 0 -40 4 -19 4
-35 0 -35 -4 0 -4 -16 0 -35 4 -19 4 -37 0 -40 -4 -2 -4 -23 0 -45 4 -22 4
-43 0 -45 -4 -3 -4 -21 0 -40 4 -19 4 -37 0 -40 -5 -3 -5 -18 -1 -33 4 -15 6
-36 5 -47 -1 -11 -3 -32 -3 -47 -1 -16 -1 -40 -2 -55 0 -16 0 -35 0 -43 1 -8
1 -26 0 -40 0 -14 0 -32 0 -40 2 -18 0 -58 -3 -85 -1 -11 1 -35 5 -52 4 -18 3
-33 -1 -33 -4 0 -4 -18 0 -40 4 -22 4 -40 0 -40 -4 0 -4 -15 0 -34 4 -19 4
-39 0 -46 -4 -7 -4 -27 0 -46 4 -19 5 -34 1 -34 -7 0 -5 -194 2 -213 2 -7 1
-21 -3 -32 -4 -11 -4 -32 1 -47 4 -15 4 -30 -1 -33 -4 -3 -4 -21 0 -40 4 -19
4 -35 0 -35 -4 0 -4 -18 0 -40 4 -22 4 -40 0 -40 -4 0 -4 -15 0 -34 4 -19 4
-39 0 -46 -4 -7 -4 -27 0 -46 4 -19 5 -34 1 -34 -7 0 -5 -194 2 -213 2 -7 1
-21 -3 -32 -4 -11 -4 -32 1 -47 4 -15 4 -30 -1 -33 -4 -3 -4 -21 0 -40 4 -19
4 -35 0 -35 -4 0 -4 -18 0 -40 4 -22 4 -40 0 -40 -4 0 -4 -15 0 -34 4 -19 4
-39 0 -46 -4 -7 -4 -27 0 -45 4 -18 4 -38 0 -45 -4 -7 -4 -27 0 -46 4 -18 5
-35 2 -38 -3 -3 -4 -29 -3 -58 1 -29 1 -68 2 -86 l0 -32 551 2 552 3 0 1469 0
1468 36 -41 c19 -22 46 -54 60 -72 49 -61 60 -74 72 -89 29 -33 75 -88 103
-124 17 -22 35 -44 40 -50 11 -12 94 -113 110 -134 6 -7 17 -21 26 -30 8 -9
44 -53 80 -97 91 -114 93 -116 104 -129 6 -6 39 -47 75 -91 36 -44 69 -85 75
-92 15 -17 62 -74 175 -213 56 -69 114 -139 128 -157 15 -17 49 -59 76 -92 28
-34 53 -61 58 -61 4 0 8 -5 8 -11 0 -6 24 -39 53 -73 28 -35 68 -82 87 -105
19 -24 43 -53 54 -65 10 -11 30 -37 45 -56 14 -19 33 -42 41 -50 8 -9 29 -33
45 -54 17 -21 38 -47 49 -59 10 -12 30 -38 45 -57 14 -19 31 -40 36 -46 27
-29 128 -152 182 -221 13 -15 36 -44 53 -63 16 -19 33 -39 37 -45 7 -9 27 -33
118 -144 11 -13 27 -32 35 -40 8 -9 26 -32 40 -51 13 -19 29 -39 35 -45 7 -5
29 -32 51 -60 21 -27 41 -52 44 -55 3 -3 24 -27 45 -55 22 -27 54 -64 71 -82
l30 -33 460 2 459 3 2 3543 1 3542 -3344 0 -3344 0 0 -4665z"/>
<path d="M7810 11763 c-1 -10 -2 -262 -3 -560 l-2 -543 2656 0 2656 0 2 -42
c2 -24 2 -49 2 -55 -2 -30 -2 -43 -1 -138 1 -55 1 -104 0 -110 0 -5 -1 -91 0
-190 1 -99 0 -198 -1 -220 -1 -22 -1 -47 0 -55 3 -47 -1 -165 -5 -172 -3 -4 0
-8 6 -8 6 0 9 -4 6 -8 -6 -10 -7 -60 -6 -197 0 -55 0 -104 0 -110 -2 -17 -1
-292 1 -301 1 -5 1 -13 0 -19 -1 -5 -2 -91 -1 -190 1 -99 0 -198 -1 -220 -1
-22 -1 -47 0 -55 3 -47 -1 -165 -5 -172 -3 -4 0 -8 6 -8 6 0 9 -4 6 -8 -6 -10
-7 -60 -6 -197 0 -55 0 -102 0 -105 -6 -33 -3 -360 3 -360 5 0 6 -4 3 -8 -5
-9 -7 -68 -6 -182 1 -41 1 -79 0 -85 -1 -10 -1 -54 0 -220 1 -55 1 -104 0
-110 0 -5 -1 -91 0 -190 1 -99 0 -198 -1 -220 -1 -22 -1 -47 0 -55 3 -47 -1
-165 -5 -172 -3 -4 0 -8 6 -8 6 0 9 -4 6 -8 -6 -10 -7 -60 -6 -197 0 -55 0
-102 0 -105 -6 -33 -3 -360 3 -360 5 0 6 -4 3 -8 -5 -9 -7 -68 -6 -182 1 -41
1 -79 0 -85 -1 -10 -1 -54 0 -220 1 -55 1 -104 0 -110 0 -5 -1 -91 0 -190 1
-99 0 -198 -1 -220 -1 -22 -1 -47 0 -55 3 -47 -1 -165 -5 -172 -3 -4 0 -8 6
-8 6 0 9 -4 6 -8 -6 -10 -7 -60 -6 -197 0 -55 0 -102 0 -105 -4 -24 -4 -360 1
-360 3 0 2 -25 -1 -55 -3 -30 -3 -60 0 -65 3 -5 3 -35 0 -65 -3 -30 -3 -60 0
-66 4 -6 5 -21 2 -35 l-4 -24 -2094 0 -2094 0 -1 25 c0 14 0 99 0 190 0 91 0
634 0 1208 l1 1042 608 1 c585 0 703 3 822 24 30 5 69 11 85 14 46 8 88 16
107 22 10 3 30 7 45 10 16 3 46 10 68 16 22 5 41 10 43 9 1 -1 19 6 39 14 20
8 38 13 41 10 3 -3 10 -1 16 4 6 5 43 19 81 31 39 13 75 27 80 30 6 4 21 11
35 15 55 16 274 132 325 173 6 4 26 19 45 32 46 32 54 38 100 80 21 19 47 42
57 51 30 26 145 152 162 179 8 14 23 32 33 41 10 9 15 18 13 21 -3 3 1 11 10
18 8 7 15 19 15 26 0 8 4 14 8 14 11 0 152 285 151 303 0 3 5 23 19 67 15 48
30 109 36 145 3 17 8 41 11 55 11 52 16 84 21 134 9 83 10 313 2 374 -4 31 -9
80 -12 107 -6 55 -14 95 -31 165 -3 11 -7 28 -9 38 -18 79 -60 192 -114 302
-33 69 -137 235 -169 270 -7 8 -25 29 -41 46 -95 109 -151 161 -257 239 -94
69 -201 135 -219 135 -8 0 -16 4 -18 8 -4 9 -67 39 -153 72 -33 12 -69 27 -80
31 -61 27 -304 94 -410 115 -22 4 -44 8 -50 10 -9 2 -44 7 -125 19 -14 2 -61
7 -105 11 -107 10 -2396 11 -2402 1 -3 -5 -7 -6713 -3 -7029 l0 -38 3215 0
3215 0 0 4665 0 4665 -3215 0 c-3055 0 -3215 -1 -3215 -17z m2290 -3147 c19
-4 60 -14 90 -22 30 -8 62 -17 70 -19 62 -15 185 -71 272 -122 79 -46 208
-176 208 -209 0 -8 3 -14 8 -14 11 0 58 -98 81 -170 28 -89 34 -135 35 -273 4
-250 -65 -436 -219 -593 -40 -41 -163 -127 -185 -129 -3 -1 -24 -11 -47 -23
-23 -12 -49 -22 -58 -22 -8 0 -15 -5 -15 -12 0 -6 -3 -9 -6 -5 -4 3 -19 0 -35
-9 -16 -8 -29 -12 -29 -10 0 3 -18 -1 -39 -9 -22 -7 -54 -16 -73 -19 -18 -3
-44 -8 -58 -11 -14 -3 -63 -8 -110 -11 -47 -3 -91 -7 -97 -9 -7 -3 -13 -1 -13
3 0 4 -214 6 -475 5 l-475 -2 0 849 0 848 568 -3 c312 -1 583 -5 602 -9z"/>
</g>
</svg>
