<?xml version="1.0" standalone="no"?>
<!DOCTYPE svg PUBLIC "-//W3C//DTD SVG 20010904//EN"
 "http://www.w3.org/TR/2001/REC-SVG-20010904/DTD/svg10.dtd">
<svg version="1.0" xmlns="http://www.w3.org/2000/svg"
 width="314.000000pt" height="314.000000pt" viewBox="0 0 314.000000 314.000000"
 preserveAspectRatio="xMidYMid meet">
<metadata>
Created by potrace 1.11, written by Peter Selinger 2001-2013
</metadata>
<g transform="translate(0.000000,314.000000) scale(0.100000,-0.100000)"
fill="#000000" stroke="none">
<path d="M263 3129 c-109 -10 -175 -54 -225 -149 l-23 -45 -3 -1350 c-2 -1210
-1 -1354 13 -1392 28 -72 69 -118 136 -152 l62 -31 1337 0 c1517 0 1403 -6
1490 81 86 86 80 -23 81 1479 1 963 -1 1336 -10 1366 -25 91 -119 176 -210
190 -58 9 -2550 11 -2648 3z"/>
</g>
</svg>
