<svg width="20" height="20" viewBox="0 0 20 20" fill="none" xmlns="http://www.w3.org/2000/svg">
<g id="Frame 270988694">
<g id="Vector">
<mask id="path-1-outside-1_10122_146837" maskUnits="userSpaceOnUse" x="1.33301" y="0.578125" width="16" height="19" fill="black">
<rect fill="white" x="1.33301" y="0.578125" width="16" height="19"/>
<path d="M8.18293 2.55333C8.36191 2.62645 8.51152 2.77251 8.59568 2.9513C8.65777 3.09007 8.66506 3.23987 8.66506 5.53682C8.66506 7.26056 8.6761 8.0019 8.70527 8.05669C8.77465 8.19546 8.89154 8.26484 9.05948 8.26484C9.28596 8.26484 9.41369 8.13337 9.44661 7.85584C9.4612 7.73895 9.5087 7.59663 9.55246 7.52725C9.8227 7.12927 10.3815 7.05241 10.7357 7.36286C10.9585 7.55642 11.0022 7.70248 11.0022 8.25774C11.0022 8.81654 11.0387 8.93343 11.2468 9.0174C11.5098 9.12699 11.7398 8.96635 11.7838 8.64131C11.8823 7.9183 12.788 7.69538 13.2116 8.29439C13.3212 8.45149 13.3212 8.45878 13.3394 9.03947L13.3577 9.62371L13.4781 9.72956C13.6534 9.88666 13.8872 9.86459 14.0405 9.67477C14.077 9.63456 14.1061 9.55788 14.1061 9.50683C14.1099 9.222 14.2887 8.94447 14.5554 8.8057C14.6723 8.74735 14.7525 8.73631 14.946 8.74735C15.2638 8.76568 15.4536 8.88612 15.5851 9.1601L15.6801 9.34992L15.6655 11.7931C15.6545 14.1815 15.6545 14.2436 15.5742 14.5468C15.4719 14.9301 15.1542 15.5802 14.9131 15.9017C14.5041 16.4386 13.7701 17.0485 13.0798 17.4283L12.8023 17.5781H10.4832H8.16423L7.89399 17.4429C7.68939 17.3444 7.54707 17.231 7.3133 16.9937C6.60151 16.2737 6.00998 15.2513 4.88507 12.8116C4.20208 11.3289 3.9612 10.8541 3.64701 10.3503C3.43905 10.0142 3.33301 9.75126 3.33301 9.56873C3.33301 9.3314 3.54845 9.02825 3.78952 8.91866C3.97205 8.83469 4.28624 8.83095 4.43959 8.90781C4.50542 8.94072 5.00925 9.41537 5.56076 9.96689C6.4519 10.8543 6.57963 10.9674 6.68193 10.9674C6.74757 10.9674 6.84258 10.9491 6.89382 10.9237C7.10197 10.8287 7.09468 11.0003 7.09468 6.9503C7.09468 4.22957 7.10571 3.17423 7.13844 3.05005C7.18949 2.84919 7.42701 2.58998 7.61328 2.53519C7.79936 2.48395 8.03313 2.4875 8.18293 2.55333Z"/>
</mask>
<path d="M8.18293 2.55333L7.6156 3.94191C7.60349 3.93695 7.59144 3.93185 7.57946 3.92658L8.18293 2.55333ZM8.59568 2.9513L9.95284 2.31247C9.95694 2.32117 9.96095 2.3299 9.96487 2.33867L8.59568 2.9513ZM8.70527 8.05669L10.0293 7.35175C10.0353 7.36305 10.0412 7.37442 10.0469 7.38587L8.70527 8.05669ZM9.44661 7.85584L7.95702 7.67917L7.95816 7.67008L9.44661 7.85584ZM9.55246 7.52725L8.28374 6.72703C8.29276 6.71273 8.30202 6.69858 8.31152 6.6846L9.55246 7.52725ZM10.7357 7.36286L9.7518 8.49508L9.74704 8.49091L10.7357 7.36286ZM11.2468 9.0174L11.808 7.62633C11.8133 7.62847 11.8186 7.63064 11.8239 7.63284L11.2468 9.0174ZM11.7838 8.64131L10.2973 8.44032L10.2975 8.43871L11.7838 8.64131ZM13.2116 8.29439L14.4364 7.42832L14.4419 7.43617L13.2116 8.29439ZM13.3394 9.03947L11.8401 9.0865L11.8401 9.08631L13.3394 9.03947ZM13.3577 9.62371L12.3675 10.7504C12.0557 10.4764 11.8715 10.0856 11.8584 9.67074L13.3577 9.62371ZM13.4781 9.72956L14.4684 8.60287C14.4721 8.60612 14.4758 8.60938 14.4794 8.61267L13.4781 9.72956ZM14.0405 9.67477L12.8737 8.73213C12.8917 8.70991 12.9102 8.6882 12.9294 8.66705L14.0405 9.67477ZM14.1061 9.50683H12.6061C12.6061 9.50026 12.6062 9.4937 12.6063 9.48713L14.1061 9.50683ZM14.5554 8.8057L13.863 7.47506C13.8704 7.47118 13.8779 7.46737 13.8854 7.46363L14.5554 8.8057ZM14.946 8.74735L15.0314 7.24978L15.0324 7.24984L14.946 8.74735ZM15.5851 9.1601L14.2437 9.83144C14.24 9.82401 14.2363 9.81654 14.2327 9.80904L15.5851 9.1601ZM15.6801 9.34992L17.0215 8.67857C17.1271 8.8897 17.1815 9.12279 17.1801 9.35887L15.6801 9.34992ZM15.6655 11.7931L14.1655 11.7862L14.1655 11.7842L15.6655 11.7931ZM15.5742 14.5468L17.0243 14.9305L17.0235 14.9335L15.5742 14.5468ZM14.9131 15.9017L16.1132 16.8016L16.1064 16.8107L14.9131 15.9017ZM13.0798 17.4283L13.803 18.7425L13.7923 18.7483L13.0798 17.4283ZM12.8023 17.5781L13.5147 18.8981C13.2958 19.0163 13.051 19.0781 12.8023 19.0781V17.5781ZM8.16423 17.5781V19.0781C7.93122 19.0781 7.70142 19.0238 7.49304 18.9196L8.16423 17.5781ZM7.89399 17.4429L8.54497 16.0915C8.55173 16.0948 8.55847 16.0981 8.56518 16.1015L7.89399 17.4429ZM7.3133 16.9937L8.38004 15.9391L8.38193 15.9411L7.3133 16.9937ZM4.88507 12.8116L3.5229 13.4397L3.52266 13.4392L4.88507 12.8116ZM3.64701 10.3503L2.37421 11.144L2.37148 11.1396L3.64701 10.3503ZM3.78952 8.91866L4.41643 10.2814L4.4103 10.2842L3.78952 8.91866ZM4.43959 8.90781L3.76877 10.2495L3.76746 10.2488L4.43959 8.90781ZM5.56076 9.96689L4.50233 11.0298L4.5001 11.0275L5.56076 9.96689ZM6.89382 10.9237L6.22693 9.58007C6.2415 9.57284 6.25619 9.56584 6.27099 9.55909L6.89382 10.9237ZM7.13844 3.05005L8.59226 3.4196L8.58891 3.43233L7.13844 3.05005ZM7.61328 2.53519L7.18995 1.09616C7.19829 1.09371 7.20665 1.09133 7.21503 1.08902L7.61328 2.53519ZM8.75026 1.16475C9.29573 1.38762 9.71739 1.81226 9.95284 2.31247L7.23852 3.59013C7.30566 3.73277 7.42809 3.86529 7.6156 3.94191L8.75026 1.16475ZM9.96487 2.33867C10.1341 2.7169 10.1442 3.07746 10.1531 3.39271C10.1634 3.76095 10.1651 4.39857 10.1651 5.53682H7.16506C7.16506 4.37813 7.16309 3.79237 7.15424 3.47678C7.14391 3.10819 7.11934 3.32447 7.22649 3.56393L9.96487 2.33867ZM10.1651 5.53682C10.1651 6.39823 10.1678 7.00421 10.174 7.39904C10.1772 7.59863 10.181 7.73003 10.1849 7.80834C10.1869 7.84996 10.1881 7.85699 10.1866 7.84362C10.1861 7.83841 10.1826 7.80547 10.1737 7.75832C10.1691 7.73451 10.1602 7.69107 10.1447 7.63678C10.1323 7.59351 10.099 7.48264 10.0293 7.35175L7.38124 8.76164C7.26285 8.53926 7.22927 8.33354 7.22637 8.31828C7.21405 8.25341 7.20735 8.19724 7.2037 8.16315C7.19608 8.09202 7.19159 8.01868 7.1885 7.95615C7.18209 7.82618 7.17768 7.65424 7.17441 7.44618C7.1678 7.02571 7.16506 6.39915 7.16506 5.53682H10.1651ZM10.0469 7.38587C9.97134 7.23473 9.83174 7.05292 9.6068 6.9204C9.38817 6.7916 9.18317 6.76484 9.05948 6.76484V9.76484C8.76785 9.76484 8.42044 9.70339 8.08404 9.50521C7.74132 9.30331 7.50858 9.01742 7.36363 8.72751L10.0469 7.38587ZM9.05948 6.76484C8.86617 6.76484 8.52275 6.83251 8.23954 7.12981C7.99404 7.38753 7.96085 7.6471 7.95705 7.67918L10.9362 8.0325C10.8995 8.3421 10.7859 8.80618 10.4117 9.19902C9.9998 9.63144 9.47928 9.76484 9.05948 9.76484V6.76484ZM7.95816 7.67008C7.99228 7.39662 8.09327 7.02902 8.28374 6.72703L10.8212 8.32746C10.8634 8.26045 10.8866 8.2092 10.8952 8.18942C10.9057 8.16511 10.9117 8.1479 10.9149 8.1382C10.9191 8.12506 10.9283 8.09554 10.9351 8.0416L7.95816 7.67008ZM8.31152 6.6846C9.07065 5.56665 10.6689 5.30974 11.7244 6.23481L9.74704 8.49091C10.0941 8.79508 10.5748 8.69189 10.7934 8.3699L8.31152 6.6846ZM11.7196 6.23064C11.9647 6.44357 12.2438 6.75569 12.39 7.2462C12.4994 7.61316 12.5022 7.99562 12.5022 8.25774H9.50222C9.50222 8.13239 9.4995 8.06579 9.49668 8.03048C9.49388 7.99549 9.4938 8.03201 9.51499 8.10312C9.54044 8.18851 9.58495 8.28604 9.65078 8.37819C9.70893 8.45959 9.75875 8.50111 9.75181 8.49507L11.7196 6.23064ZM12.5022 8.25774C12.5022 8.38862 12.5046 8.4562 12.5071 8.49052C12.5102 8.53207 12.5098 8.46674 12.4748 8.3576C12.4314 8.2223 12.3395 8.03308 12.1616 7.86169C12 7.70603 11.8447 7.64113 11.808 7.62633L10.6857 10.4085C10.5449 10.3517 10.3069 10.2407 10.08 10.022C9.83676 9.78764 9.69664 9.51854 9.61812 9.27367C9.4982 8.89971 9.50222 8.48375 9.50222 8.25774H12.5022ZM11.8239 7.63284C11.5422 7.51544 11.1137 7.50004 10.7374 7.7634C10.4016 7.99837 10.3151 8.30843 10.2973 8.44032L13.2702 8.8423C13.2085 9.29923 12.985 9.85213 12.4575 10.2213C11.8894 10.6188 11.2144 10.629 10.6698 10.402L11.8239 7.63284ZM10.2975 8.43871C10.5803 6.36403 13.2283 5.72004 14.4364 7.42833L11.9869 9.16045C12.3478 9.67071 13.1843 9.47257 13.27 8.84391L10.2975 8.43871ZM14.4419 7.43617C14.4582 7.45957 14.5464 7.58153 14.6208 7.73237C14.7114 7.9163 14.7608 8.09322 14.7886 8.25701C14.8121 8.39537 14.8205 8.52869 14.8253 8.62484C14.8304 8.72731 14.8343 8.85365 14.8386 8.99263L11.8401 9.08631C11.8378 9.01286 11.8359 8.95217 11.8341 8.89931C11.8322 8.84633 11.8306 8.80661 11.8291 8.77549C11.8275 8.74391 11.8263 8.7285 11.8258 8.72316C11.8253 8.71762 11.8264 8.73221 11.831 8.75915C11.8358 8.78775 11.8451 8.8335 11.8626 8.88989C11.8808 8.94866 11.9037 9.00547 11.9298 9.05849C11.9545 9.1087 11.9767 9.14429 11.9861 9.15891C11.9931 9.16972 11.9967 9.17447 11.9814 9.15262L14.4419 7.43617ZM14.8386 8.99244L14.857 9.57668L11.8584 9.67074L11.8401 9.0865L14.8386 8.99244ZM14.3479 8.49702L14.4684 8.60287L12.4879 10.8563L12.3675 10.7504L14.3479 8.49702ZM14.4794 8.61267C14.2844 8.43787 13.9797 8.3048 13.6234 8.3392C13.2722 8.37311 13.017 8.55481 12.8737 8.73213L15.2073 10.6174C14.9107 10.9845 14.4619 11.2722 13.9117 11.3253C13.3563 11.3789 12.8471 11.1784 12.4769 10.8465L14.4794 8.61267ZM12.9294 8.66705C12.7861 8.82508 12.719 8.9739 12.6884 9.05274C12.6588 9.1291 12.6061 9.28736 12.6061 9.50683H15.6061C15.6061 9.77735 15.5389 9.99947 15.4856 10.137C15.4313 10.277 15.3314 10.4842 15.1516 10.6825L12.9294 8.66705ZM12.6063 9.48713C12.6178 8.60766 13.145 7.84865 13.863 7.47506L15.2477 10.1363C15.3535 10.0813 15.436 10.0029 15.4946 9.91159C15.5529 9.82072 15.6039 9.69059 15.606 9.52652L12.6063 9.48713ZM13.8854 7.46363C14.0483 7.38233 14.2507 7.30375 14.5033 7.26653C14.719 7.23475 14.9124 7.24299 15.0314 7.24978L14.8607 10.2449C14.7861 10.2407 14.8427 10.2489 14.9406 10.2345C14.9981 10.226 15.0578 10.2119 15.1163 10.1923C15.1717 10.1737 15.2103 10.1553 15.2253 10.1478L13.8854 7.46363ZM15.0324 7.24984C15.3594 7.26869 15.761 7.34809 16.1469 7.59633C16.5407 7.84964 16.7845 8.1925 16.9374 8.51115L14.2327 9.80904C14.2542 9.85371 14.3373 9.99936 14.5239 10.1194C14.7026 10.2343 14.8505 10.2443 14.8597 10.2449L15.0324 7.24984ZM16.9265 8.48875L17.0215 8.67857L14.3387 10.0213L14.2437 9.83144L16.9265 8.48875ZM17.1801 9.35887L17.1655 11.8021L14.1655 11.7842L14.1801 9.34096L17.1801 9.35887ZM17.1655 11.8C17.1551 14.0381 17.1683 14.3863 17.0243 14.9305L14.1242 14.163C14.1291 14.1444 14.138 14.1692 14.1466 13.9033C14.1571 13.5782 14.1599 12.9951 14.1655 11.7862L17.1655 11.8ZM17.0235 14.9335C16.9369 15.258 16.7858 15.6143 16.6437 15.9055C16.5009 16.1978 16.3136 16.5343 16.1132 16.8016L13.713 15.0018C13.7537 14.9476 13.8458 14.7983 13.9478 14.5894C14.0503 14.3794 14.1092 14.2189 14.1249 14.16L17.0235 14.9335ZM16.1064 16.8107C15.55 17.541 14.6441 18.2797 13.8029 18.7425L12.3567 16.1141C12.8961 15.8173 13.4583 15.3362 13.7199 14.9927L16.1064 16.8107ZM13.7923 18.7483L13.5147 18.8981L12.0898 16.2581L12.3673 16.1083L13.7923 18.7483ZM12.8023 19.0781H10.4832V16.0781H12.8023V19.0781ZM10.4832 19.0781H8.16423V16.0781H10.4832V19.0781ZM7.49304 18.9196L7.2228 18.7844L8.56518 16.1015L8.83542 16.2367L7.49304 18.9196ZM7.24301 18.7943C6.81793 18.5895 6.53541 18.3415 6.24467 18.0463L8.38193 15.9411C8.48052 16.0412 8.52138 16.0753 8.53571 16.0865C8.54039 16.0901 8.53992 16.0895 8.53654 16.0874C8.53338 16.0854 8.53473 16.0866 8.54497 16.0915L7.24301 18.7943ZM6.24656 18.0482C5.32412 17.1151 4.63721 15.8564 3.5229 13.4397L6.24723 12.1835C7.38274 14.6461 7.8789 15.4322 8.38004 15.9391L6.24656 18.0482ZM3.52266 13.4392C2.8373 11.9514 2.63196 11.5573 2.37422 11.144L4.9198 9.55655C5.29044 10.1509 5.56686 10.7065 6.24747 12.184L3.52266 13.4392ZM2.37148 11.1396C2.15307 10.7866 1.83301 10.2081 1.83301 9.56873H4.83301C4.83301 9.47241 4.81948 9.40452 4.81227 9.37417C4.80476 9.34251 4.79912 9.33085 4.8037 9.34226C4.80795 9.35281 4.81844 9.37689 4.83878 9.4157C4.8589 9.45408 4.88627 9.50234 4.92254 9.56096L2.37148 11.1396ZM1.83301 9.56873C1.83301 9.03734 2.05312 8.60355 2.24486 8.33155C2.44567 8.04668 2.75331 7.742 3.16873 7.55314L4.4103 10.2842C4.58466 10.2049 4.66405 10.1066 4.69687 10.06C4.71956 10.0278 4.74821 9.97995 4.77384 9.91202C4.7981 9.84773 4.83301 9.72987 4.83301 9.56873H1.83301ZM3.16261 7.55594C3.50298 7.39936 3.85072 7.3569 4.10281 7.35309C4.33447 7.34959 4.72752 7.37426 5.11172 7.56682L3.76746 10.2488C3.90304 10.3168 4.00902 10.3375 4.04791 10.3441C4.09584 10.3522 4.12905 10.353 4.14818 10.3527C4.16813 10.3524 4.19362 10.3506 4.22725 10.3442C4.25667 10.3386 4.32508 10.3234 4.41642 10.2814L3.16261 7.55594ZM5.11041 7.56617C5.23115 7.62654 5.31979 7.69181 5.34004 7.70655C5.37695 7.73343 5.40856 7.75859 5.43055 7.77647C5.47536 7.81292 5.52051 7.85212 5.56029 7.8874C5.64189 7.95977 5.74087 8.05126 5.84763 8.15202C6.06314 8.35543 6.33747 8.62227 6.62142 8.90623L4.5001 11.0275C4.23254 10.76 3.97919 10.5137 3.78846 10.3337C3.69209 10.2428 3.6183 10.175 3.56969 10.1318C3.54435 10.1094 3.53504 10.1018 3.53754 10.1038C3.53838 10.1045 3.55188 10.1155 3.57391 10.1316C3.57927 10.1355 3.65625 10.1932 3.76877 10.2495L5.11041 7.56617ZM6.61919 8.904C6.8416 9.12548 7.01183 9.29411 7.14458 9.42352C7.27985 9.55539 7.36318 9.63376 7.41548 9.6804C7.44079 9.70297 7.44975 9.70995 7.44691 9.70771C7.44554 9.70662 7.41692 9.68381 7.36771 9.65391C7.31746 9.62338 7.22601 9.5733 7.09978 9.53274C6.96212 9.48851 6.82021 9.46743 6.68193 9.46743V12.4674C6.30828 12.4674 6.01328 12.3413 5.8101 12.2179C5.6472 12.1189 5.50978 12.0006 5.41884 11.9195C5.22468 11.7463 4.93609 11.4617 4.50233 11.0298L6.61919 8.904ZM6.68193 9.46743C6.59318 9.46743 6.53156 9.47765 6.49583 9.48488C6.47335 9.48942 6.44289 9.49654 6.40555 9.50808C6.37249 9.51829 6.30768 9.53999 6.22693 9.58007L7.56071 12.2673C7.24936 12.4218 6.91167 12.4674 6.68193 12.4674V9.46743ZM6.27099 9.55909C6.29224 9.54939 6.37788 9.51245 6.33208 9.53237C6.32311 9.53627 6.25316 9.56614 6.16803 9.61927C5.93894 9.76224 5.76284 9.96685 5.65661 10.1919C5.614 10.2821 5.59181 10.3563 5.58083 10.3986C5.56973 10.4413 5.5656 10.469 5.56501 10.473C5.56447 10.4766 5.56917 10.4435 5.57425 10.3439C5.5959 9.91862 5.59468 9.00853 5.59468 6.9503H8.59468C8.59468 8.94211 8.5971 9.97121 8.57036 10.4964C8.56334 10.6344 8.55269 10.7771 8.53268 10.9123C8.51475 11.0333 8.47641 11.2461 8.36943 11.4727C8.2346 11.7583 8.02492 11.9967 7.75639 12.1643C7.65154 12.2297 7.56041 12.2696 7.52867 12.2834C7.51947 12.2874 7.51159 12.2908 7.50702 12.2927C7.49707 12.2969 7.50444 12.2938 7.49874 12.2962C7.49666 12.2971 7.50484 12.2936 7.51665 12.2883L6.27099 9.55909ZM5.59468 6.9503C5.59468 5.59005 5.59742 4.63854 5.60438 4.00988C5.60784 3.69691 5.61244 3.45368 5.61874 3.27607C5.62185 3.18833 5.62579 3.10429 5.63131 3.03017C5.6336 2.99953 5.6436 2.83613 5.68797 2.66777L8.58891 3.43233C8.6251 3.29501 8.62759 3.19176 8.62301 3.25323C8.62167 3.27121 8.61938 3.31125 8.61685 3.38242C8.61188 3.52264 8.60758 3.73658 8.60419 4.04305C8.59745 4.65329 8.59468 5.58982 8.59468 6.9503H5.59468ZM5.68467 2.68052C5.79369 2.25162 6.03787 1.92154 6.2214 1.7221C6.39577 1.53263 6.72439 1.23312 7.18995 1.09616L8.0366 3.97421C8.19944 3.92631 8.301 3.8586 8.33888 3.83158C8.38454 3.799 8.41253 3.77138 8.4289 3.75359C8.44567 3.73537 8.46704 3.7092 8.49086 3.66988C8.51115 3.6364 8.55853 3.55208 8.59221 3.41958L5.68467 2.68052ZM7.21503 1.08902C7.63406 0.973629 8.238 0.939081 8.78641 1.18008L7.57946 3.92658C7.66515 3.96424 7.73401 3.98094 7.7747 3.98874C7.81743 3.99692 7.84987 3.99923 7.87122 3.99981C7.90759 4.00079 7.95127 3.99795 8.01152 3.98136L7.21503 1.08902Z" fill="#777777" mask="url(#path-1-outside-1_10122_146837)"/>
</g>
</g>
</svg>
