<svg width="185" height="38" viewBox="0 0 185 38" fill="none" xmlns="http://www.w3.org/2000/svg">
<path d="M12.9225 9.12678H9.13709V28.8602H13.6534V16.8845L23.4954 28.8602H27.2481V9.12678H22.7448V21.1089L12.9225 9.12678ZM36.4178 9.12678H31.8493V28.8602H36.4178V9.12678ZM57.8313 9.12678H40.9733V12.8492H51.8073L40.9733 25.8875V28.8471H57.8182V25.1312H46.9908L57.7986 12.093L57.8313 9.12678ZM80.5239 28.8537V0H0V38H80.5108V33.4366H4.56855V4.56339H75.9358V19.7008H66.9618V9.12678H62.3933V28.8602H66.9618V23.5667H75.9358V28.8602L80.5239 28.8537Z" fill="#121216"/>
<path d="M85.0795 0V4.56339H180.432V33.4301H89.648V23.4232H93.6292C95.1958 23.4619 96.7528 23.1686 98.1977 22.5627C99.4145 22.0513 100.451 21.1887 101.174 20.0854C101.88 18.9505 102.239 17.6338 102.205 16.2978C102.24 14.9538 101.876 13.6294 101.161 12.4907C100.434 11.3908 99.3988 10.5292 98.1847 10.0134C96.7417 9.39995 95.1839 9.10209 93.6161 9.13982H85.0664V38H184.987V0H85.0795ZM89.648 12.8557H93.3746C94.4904 12.7779 95.5983 13.0915 96.5074 13.7423C96.871 14.057 97.1568 14.4514 97.3424 14.8947C97.5281 15.3381 97.6086 15.8183 97.5777 16.2978C97.606 16.7723 97.5242 17.2469 97.3385 17.6846C97.1528 18.1222 96.8684 18.511 96.5074 18.8207C95.5983 19.4715 94.4904 19.7851 93.3746 19.7073H89.648V12.8557ZM104.352 28.8602L106.101 24.6358H115.271L117.02 28.8602H121.824L112.987 9.12678H108.47L99.6662 28.8602H104.352ZM110.702 13.6119L113.835 21.1676H107.57L110.702 13.6119ZM139.302 20.0854C140.025 18.9567 140.393 17.6375 140.359 16.2978C140.393 14.9538 140.03 13.6294 139.315 12.4907C138.588 11.3908 137.553 10.5292 136.339 10.0134C134.896 9.39995 133.338 9.10209 131.77 9.13982H123.22V28.8602H127.789V23.3646H131.992L135.803 28.8602H140.718L136.286 22.5236C137.505 22.023 138.549 21.175 139.289 20.0854H139.302ZM134.648 18.8272C133.743 19.4875 132.634 19.8083 131.515 19.7334H127.789V12.8557H131.515C132.631 12.7779 133.739 13.0915 134.648 13.7423C135.017 14.0548 135.308 14.4479 135.499 14.8912C135.69 15.3344 135.777 15.8158 135.751 16.2978C135.777 16.7739 135.694 17.2497 135.509 17.6891C135.323 18.1284 135.04 18.5199 134.681 18.8338L134.648 18.8272ZM152.374 28.8667V12.8557H158.692V9.12678H141.462V12.8492H147.78V28.8602L152.374 28.8667ZM170.407 24.9552C169.516 25.3987 168.522 25.5967 167.529 25.5289C166.341 25.5248 165.16 25.3357 164.03 24.9683C162.943 24.6343 161.916 24.1281 160.989 23.4689L159.436 26.9044C160.495 27.6642 161.685 28.2232 162.947 28.5538C164.418 28.9846 165.943 29.2041 167.476 29.2057C169.05 29.2478 170.615 28.9706 172.078 28.3908C173.217 27.9393 174.203 27.1699 174.917 26.1743C175.537 25.2662 175.865 24.1903 175.856 23.0908C175.917 21.9567 175.551 20.8409 174.832 19.9616C174.163 19.1944 173.313 18.6071 172.358 18.2536C171.15 17.821 169.916 17.4618 168.664 17.1779C167.546 16.9687 166.452 16.6431 165.401 16.2066C165.09 16.0958 164.822 15.8915 164.632 15.6217C164.443 15.352 164.342 15.0301 164.344 14.7006C164.342 14.3723 164.425 14.0491 164.585 13.7624C164.745 13.4757 164.977 13.2352 165.257 13.0643C166.125 12.5913 167.11 12.3764 168.096 12.445C170.039 12.4712 171.939 13.011 173.605 14.0096L175.015 10.5414C174.035 9.94646 172.97 9.50663 171.856 9.23761C170.645 8.93735 169.402 8.78629 168.155 8.78779C166.593 8.7461 165.038 9.02339 163.587 9.60268C162.453 10.0526 161.476 10.8229 160.774 11.8192C160.158 12.7386 159.835 13.8226 159.847 14.9288C159.787 16.0728 160.152 17.1985 160.872 18.0906C161.537 18.8629 162.388 19.453 163.345 19.8051C164.55 20.2297 165.779 20.5823 167.026 20.8612C168.005 21.0829 168.782 21.2915 169.356 21.5131C169.87 21.6687 170.349 21.9234 170.766 22.2628C170.94 22.4025 171.081 22.5803 171.176 22.7826C171.271 22.9849 171.318 23.2063 171.314 23.4297C171.313 23.746 171.227 24.0561 171.064 24.327C170.9 24.598 170.667 24.8196 170.387 24.9683" fill="#F44336"/>
</svg>
