<svg width="40" height="40" viewBox="0 0 40 40" fill="none" xmlns="http://www.w3.org/2000/svg">
<g clip-path="url(#clip0)">
<path d="M19.1131 25.0239C19.3667 25.247 19.6833 25.3588 20.0002 25.3588C20.3171 25.3588 20.6339 25.247 20.8873 25.0239C21.2086 24.741 28.7515 18.0177 28.7515 11.045C28.7515 6.21781 24.8258 2.29053 20.0003 2.29053C15.1747 2.29053 11.2489 6.21781 11.2489 11.045C11.2487 18.0177 18.7919 24.741 19.1131 25.0239ZM20.0002 8.75762C21.253 8.75762 22.2689 9.78146 22.2689 11.045C22.2689 12.3085 21.253 13.3324 20.0002 13.3324C18.747 13.3324 17.7312 12.3083 17.7312 11.045C17.7312 9.78146 18.747 8.75762 20.0002 8.75762Z" fill="#5B5F74"/>
<path d="M36.8159 25.0201L35.8021 21.4676C35.6376 20.891 35.1108 20.4936 34.5115 20.4936H27.2766C27.015 20.8824 26.7391 21.2727 26.4472 21.6652C24.4193 24.3898 22.3578 26.2327 22.1292 26.4342C21.5407 26.9525 20.7847 27.2379 20.0002 27.2379C19.2162 27.2379 18.4603 26.9527 17.8709 26.4339C17.6426 26.2327 15.5808 24.3895 13.553 21.6652C13.2612 21.2727 12.9852 20.8823 12.7237 20.4936H5.48864C4.88931 20.4936 4.36258 20.891 4.198 21.4676L2.98978 25.7014L29.9971 30.6482L36.8159 25.0201Z" fill="#858AA2"/>
<path d="M39.9486 35.9989L37.3587 26.922L24.5085 37.7096H38.6581C39.0792 37.7096 39.4758 37.5121 39.7294 37.1759C39.9831 36.8396 40.064 36.4038 39.9486 35.9989Z" fill="#858AA2"/>
<path d="M6.57148 28.2678L2.4718 27.5168L0.051589 35.9989C-0.0638323 36.4037 0.0171108 36.8396 0.270849 37.1757C0.524452 37.5119 0.921087 37.7095 1.34223 37.7095H6.57148V28.2678Z" fill="#858AA2"/>
<path d="M8.45068 28.6122V37.7095H21.5857L28.129 32.2166L8.45068 28.6122Z" fill="#858AA2"/>
</g>
<defs>
<clipPath id="clip0">
<rect width="40" height="40" fill="white"/>
</clipPath>
</defs>
</svg>
