<svg width="40" height="40" viewBox="0 0 40 40" fill="none" xmlns="http://www.w3.org/2000/svg">
<path d="M39.3422 9.85936C39.2504 9.67062 39.1149 9.50654 38.9469 9.38081C38.7789 9.25507 38.5833 9.17132 38.3764 9.13654C38.1694 9.10175 37.9572 9.11694 37.7573 9.18085C37.5574 9.24475 37.3757 9.35551 37.2273 9.50389L33.2312 13.5C33.0682 13.6608 32.8485 13.7509 32.6195 13.7509C32.3905 13.7509 32.1708 13.6608 32.0078 13.5L30.2515 11.7437C30.0909 11.5805 30.0009 11.3606 30.0009 11.1316C30.0009 10.9026 30.0909 10.6827 30.2515 10.5195L34.2265 6.54373C34.3786 6.39165 34.4911 6.20462 34.5542 5.999C34.6173 5.79338 34.6291 5.57543 34.5885 5.36422C34.5478 5.15301 34.4561 4.95496 34.3212 4.78742C34.1863 4.61987 34.0125 4.48792 33.8148 4.40311C30.7125 3.07498 26.8554 3.82108 24.4398 6.22264C22.3453 8.30155 21.7187 11.5351 22.7211 15.1055C22.7643 15.2587 22.7641 15.4209 22.7205 15.574C22.6769 15.7271 22.5916 15.8651 22.4742 15.9726L8.96638 28.5234C8.51888 28.926 8.15803 29.4155 7.90581 29.962C7.65359 30.5086 7.51529 31.1008 7.49933 31.7025C7.48337 32.3042 7.59009 32.9029 7.81297 33.4621C8.03586 34.0212 8.37026 34.5291 8.79579 34.9549C9.22132 35.3806 9.72907 35.7153 10.2881 35.9384C10.8472 36.1616 11.4458 36.2686 12.0475 36.2529C12.6493 36.2373 13.2415 36.0993 13.7882 35.8473C14.3349 35.5954 14.8245 35.2348 15.2273 34.7875L27.8906 21.2562C27.9966 21.1414 28.1319 21.0577 28.282 21.0141C28.432 20.9704 28.5911 20.9685 28.7422 21.0086C32.2578 21.9461 35.4609 21.3211 37.5258 19.2898C38.7133 18.1179 39.5422 16.464 39.8609 14.625C40.1601 12.8906 39.9711 11.1531 39.3422 9.85936Z" fill="#5B5F74"/>
<path d="M9.26088 16.7617C9.26215 16.4652 9.18101 16.1742 9.0265 15.9211C9.00486 15.8869 8.9933 15.8472 8.99313 15.8067C8.99296 15.7663 9.0042 15.7265 9.02556 15.6921C9.04692 15.6577 9.07754 15.63 9.1139 15.6122C9.15027 15.5944 9.19092 15.5872 9.23119 15.5914H9.23588C9.3015 15.5984 9.65228 15.6492 10.1499 15.9516C10.5195 16.1758 11.5742 16.8953 13.4101 18.7281C13.3906 19.3524 13.5901 19.9637 13.9742 20.4563L19.1484 15.6477C18.6901 15.2137 18.0913 14.9587 17.4609 14.9289C17.455 14.9225 17.4495 14.9157 17.4445 14.9086L17.3937 14.8547L15.4765 12.2109C15.2634 11.9215 15.1236 11.5848 15.0692 11.2295C15.0147 10.8742 15.0473 10.511 15.164 10.1711C15.3399 9.66479 15.6597 9.22084 16.0843 8.89375C16.5288 8.54922 17.532 8.13438 18.3843 8.06406C18.7814 8.03124 19.1811 8.05597 19.571 8.1375C19.7579 8.18258 19.942 8.23814 20.1226 8.30391C20.1773 8.32436 20.2335 8.3408 20.2906 8.35313C20.5386 8.40806 20.7974 8.38615 21.0326 8.29031C21.2678 8.19446 21.4683 8.02923 21.6072 7.81662C21.7462 7.60401 21.8171 7.35411 21.8105 7.1002C21.8039 6.84628 21.7201 6.60041 21.5703 6.39531C21.5499 6.36797 21.4671 6.25547 21.3445 6.10391C21.1156 5.81527 20.8649 5.54467 20.5945 5.29453C19.9578 4.71953 18.3078 3.75 16.1413 3.75C14.9016 3.74909 13.6733 3.98785 12.5242 4.45313C9.5265 5.66016 7.56557 7.31094 6.664 8.18672L6.65697 8.19375C6.05033 8.79275 5.48866 9.43564 4.9765 10.1172C4.78288 10.3902 4.65702 10.7054 4.60932 11.0367C4.58703 11.1777 4.51291 11.3052 4.40149 11.3944C4.29008 11.4836 4.14938 11.5279 4.00697 11.5188H3.92182C3.49592 11.5159 3.08618 11.6816 2.78197 11.9797L0.481191 14.2227L0.456191 14.2477C0.166774 14.5483 0.00354445 14.9485 5.70482e-05 15.3658C-0.00343035 15.7831 0.15309 16.1859 0.43744 16.4914C0.452284 16.507 0.466347 16.5219 0.481972 16.5367L4.19291 20.1562C4.49866 20.4558 4.90939 20.624 5.33744 20.625C5.76334 20.6278 6.17308 20.4621 6.47728 20.1641L8.77885 17.9148C8.93235 17.7647 9.05412 17.5853 9.13693 17.3872C9.21973 17.1891 9.26188 16.9764 9.26088 16.7617Z" fill="#858AA2"/>
<path d="M34.1663 29.5633C33.0773 28.6578 30.7507 26.5633 28.3796 24.3898L23.2179 29.9062C25.4242 32.25 27.421 34.4258 28.296 35.4437L28.3015 35.45C28.5117 35.6906 28.7688 35.8856 29.0571 36.0232C29.3455 36.1608 29.6588 36.2379 29.9781 36.25H30.064C30.6778 36.2482 31.2666 36.0065 31.7046 35.5766L34.3218 32.9641C34.5487 32.7377 34.7258 32.4665 34.8418 32.1677C34.9577 31.869 35.0101 31.5493 34.9953 31.2291C34.9806 30.909 34.8992 30.5954 34.7563 30.3086C34.6135 30.0217 34.413 29.7679 34.1663 29.5633Z" fill="#858AA2"/>
</svg>
