<svg width="40" height="40" viewBox="0 0 40 40" fill="none" xmlns="http://www.w3.org/2000/svg">
<g clip-path="url(#clip0)">
<path d="M17 27.5208H1.41677C1.22481 27.5208 1.05877 27.5909 0.918637 27.7311C0.778423 27.8712 0.708374 28.0372 0.708374 28.2291V37.8541C0.708374 38.0459 0.778423 38.212 0.918637 38.3521C1.05877 38.4923 1.22481 38.5625 1.41677 38.5625H17C17.1919 38.5625 17.3578 38.4923 17.498 38.3521C17.6381 38.212 17.7082 38.0459 17.7082 37.8541V28.2291C17.7082 28.0371 17.6384 27.8713 17.498 27.7311C17.3579 27.5909 17.1919 27.5208 17 27.5208ZM11.1228 31.8522C10.9828 31.9923 10.8167 32.0624 10.6248 32.0624H7.7915C7.59977 32.0624 7.43373 31.9923 7.29348 31.8522C7.15334 31.7119 7.08322 31.546 7.08322 31.354C7.08322 31.1622 7.15334 30.9962 7.29348 30.856C7.4337 30.7158 7.59973 30.6457 7.7915 30.6457H10.6251C10.8168 30.6457 10.9828 30.7158 11.1231 30.856C11.2632 30.9961 11.3333 31.1622 11.3333 31.354C11.3333 31.5459 11.2631 31.7119 11.1228 31.8522Z" fill="#5B5F74"/>
<path d="M18.2065 22.2103C18.0662 22.07 17.9003 22 17.7084 22H0.70832C0.516509 22 0.350478 22.07 0.210302 22.2103C0.0701265 22.3504 0 22.5164 0 22.7083L0.000232697 25.2917C0.000232697 25.4835 0.0703592 25.6495 0.210573 25.7897C0.350749 25.93 0.516742 26 0.708592 26H17.7084C17.9002 26 18.0663 25.93 18.2067 25.7897C18.3467 25.6495 18.4168 25.4836 18.4168 25.2917L18.4166 22.7083C18.4166 22.5163 18.3465 22.3504 18.2065 22.2103Z" fill="#858AA2"/>
<path d="M28 8.52081H12.4168C12.2248 8.52081 12.0588 8.59086 11.9186 8.73108C11.7784 8.87121 11.7084 9.03724 11.7084 9.22909V18.8541C11.7084 19.0459 11.7784 19.212 11.9186 19.3521C12.0588 19.4923 12.2248 19.5625 12.4168 19.5625H28C28.1919 19.5625 28.3578 19.4923 28.498 19.3521C28.6381 19.212 28.7082 19.0459 28.7082 18.8541V9.22909C28.7082 9.03713 28.6384 8.87125 28.498 8.73108C28.3579 8.59086 28.1919 8.52081 28 8.52081ZM22.1228 12.8522C21.9828 12.9923 21.8167 13.0624 21.6248 13.0624H18.7915C18.5998 13.0624 18.4337 12.9923 18.2935 12.8522C18.1533 12.7119 18.0832 12.546 18.0832 12.354C18.0832 12.1622 18.1533 11.9962 18.2935 11.856C18.4337 11.7158 18.5997 11.6457 18.7915 11.6457H21.6251C21.8168 11.6457 21.9828 11.7158 22.1231 11.856C22.2632 11.9961 22.3333 12.1622 22.3333 12.354C22.3333 12.5459 22.2631 12.7119 22.1228 12.8522Z" fill="#5B5F74"/>
<path d="M29.2065 3.21026C29.0662 3.07005 28.9003 3 28.7084 3H11.7083C11.5165 3 11.3505 3.07005 11.2103 3.21026C11.0701 3.3504 11 3.51643 11 3.70828L11.0003 6.29172C11.0003 6.48353 11.0704 6.64948 11.2106 6.78974C11.3508 6.92995 11.5168 7 11.7086 7H28.7084C28.9002 7 29.0663 6.92995 29.2067 6.78974C29.3468 6.64952 29.4168 6.48357 29.4168 6.29172L29.4166 3.70828C29.4166 3.51632 29.3465 3.3504 29.2065 3.21026Z" fill="#858AA2"/>
<path d="M38.5835 27.5208H23.0003C22.8083 27.5208 22.6423 27.5909 22.5021 27.7311C22.3619 27.8712 22.2919 28.0372 22.2919 28.2291V37.8541C22.2919 38.0459 22.3619 38.212 22.5021 38.3521C22.6423 38.4923 22.8083 38.5625 23.0003 38.5625H38.5835C38.7754 38.5625 38.9413 38.4923 39.0815 38.3521C39.2216 38.212 39.2917 38.0459 39.2917 37.8541V28.2291C39.2917 28.0371 39.2219 27.8713 39.0815 27.7311C38.9414 27.5909 38.7754 27.5208 38.5835 27.5208ZM32.7063 31.8522C32.5663 31.9923 32.4002 32.0624 32.2083 32.0624H29.375C29.1833 32.0624 29.0172 31.9923 28.877 31.8522C28.7368 31.7119 28.6667 31.546 28.6667 31.354C28.6667 31.1622 28.7368 30.9962 28.877 30.856C29.0172 30.7158 29.1832 30.6457 29.375 30.6457H32.2086C32.4003 30.6457 32.5663 30.7158 32.7066 30.856C32.8467 30.9961 32.9168 31.1622 32.9168 31.354C32.9168 31.5459 32.8465 31.7119 32.7063 31.8522Z" fill="#5B5F74"/>
<path d="M39.7899 22.2103C39.6497 22.07 39.4838 22 39.2919 22H22.2918C22.1 22 21.934 22.07 21.7938 22.2103C21.6536 22.3504 21.5835 22.5164 21.5835 22.7083L21.5837 25.2917C21.5837 25.4835 21.6539 25.6495 21.7941 25.7897C21.9342 25.93 22.1002 26 22.2921 26H39.2919C39.4837 26 39.6498 25.93 39.7902 25.7897C39.9302 25.6495 40.0003 25.4836 40.0003 25.2917L40.0001 22.7083C40.0001 22.5163 39.93 22.3504 39.7899 22.2103Z" fill="#858AA2"/>
</g>
<defs>
<clipPath id="clip0">
<rect width="40.0001" height="40" fill="white"/>
</clipPath>
</defs>
</svg>
