<svg width="76" height="76" viewBox="0 0 76 76" fill="none" xmlns="http://www.w3.org/2000/svg">
<path d="M71.598 15.1789H69.0862V14.253V10.1855L65.0313 9.86472C63.4853 9.74234 61.9229 9.68042 60.3871 9.68042C53.0258 9.68042 45.8595 11.0806 38.4797 13.9607L38.0001 14.1479L37.5206 13.9607C30.1407 11.0806 22.9745 9.68042 15.6131 9.68042C14.0774 9.68042 12.5147 9.74234 10.969 9.86472L6.91413 10.1855V14.253V15.1789H4.40204H0V19.5809V61.9179V66.32H4.40204H31.6093H33.4024L34.6851 65.0669L37.0965 62.7118H38.9031L41.3146 65.0669L42.5973 66.32H44.3904H71.5977H75.9997V61.9179V19.5809V15.1789H71.598ZM6.91384 56.6217V61.9176H4.40204V19.5809H6.91384V56.6217ZM40.0797 18.0613C46.9298 15.3881 53.5916 14.0822 60.3868 14.0822C61.7987 14.0822 63.2379 14.1382 64.6841 14.2527V56.6217C57.8856 54.2108 51.2054 53.0349 44.3819 53.0349C42.9653 53.0349 41.525 53.0921 40.0797 53.1957V18.0613ZM11.3159 14.253C12.7621 14.1385 14.201 14.0825 15.6131 14.0825C22.4084 14.0825 29.0705 15.3881 35.9203 18.0616V53.1963C34.475 53.0927 33.0346 53.0355 31.6181 53.0355C24.7946 53.0355 18.1144 54.2114 11.3159 56.6223V14.253ZM44.3907 61.9176L40.6965 58.3094H35.3035L31.6093 61.9176H9.55242L12.7867 60.7708C19.1128 58.5275 25.2724 57.4372 31.6178 57.4372C32.8776 57.4372 34.2194 57.4877 35.6057 57.5869L35.6776 57.5922L37.9999 57.7583L40.3221 57.5922L40.394 57.5869C41.7803 57.4877 43.1221 57.4372 44.3819 57.4372C50.7273 57.4372 56.8869 58.5278 63.213 60.7708L66.4473 61.9176H44.3907ZM71.598 61.9176H69.0862V56.6217V19.5809H71.598V61.9176Z" fill="#F1F2F3"/>
</svg>
